<svg xmlns="http://www.w3.org/2000/svg" viewBox="0 0 49.02 49.02"><defs><style>.cls-1{fill:#101828;}.cls-2{fill:#072e68;}.cls-3{fill:#fff;}</style></defs><g id="Layer_2" data-name="Layer 2"><g id="Layer_1-2" data-name="Layer 1"><path class="cls-1" d="M47.47,15.19a5.28,5.28,0,0,0-3.75-1.56A8.33,8.33,0,0,1,35.39,5.3,5.3,5.3,0,0,0,30.09,0H18.94a5.29,5.29,0,0,0-5.3,5.3A8.33,8.33,0,0,1,5.3,13.63h0A5.3,5.3,0,0,0,0,18.93V30.09a5.3,5.3,0,0,0,5.3,5.3h0a8.33,8.33,0,0,1,8.34,8.33,5.3,5.3,0,0,0,5.3,5.3H30.09a5.31,5.31,0,0,0,5.3-5.3,8.33,8.33,0,0,1,8.33-8.33,5.3,5.3,0,0,0,5.3-5.3V18.93A5.25,5.25,0,0,0,47.47,15.19Zm-23,21.89A12.57,12.57,0,1,1,37.08,24.51,12.57,12.57,0,0,1,24.51,37.08Z"/><path class="cls-2" d="M30.09,47.72H18.94a4,4,0,0,1-4-4A9.65,9.65,0,0,0,5.3,34.08a4,4,0,0,1-4-4V18.93a4,4,0,0,1,4-4A9.65,9.65,0,0,0,14.94,5.3a4,4,0,0,1,4-4H30.09a4,4,0,0,1,4,4,9.66,9.66,0,0,0,9.64,9.64,4,4,0,0,1,4,4V30.09a4,4,0,0,1-4,4,9.66,9.66,0,0,0-9.64,9.64,4,4,0,0,1-4,4Zm-11.15-46A3.55,3.55,0,0,0,15.4,5.3,10.11,10.11,0,0,1,5.3,15.4a3.54,3.54,0,0,0-3.54,3.53V30.09A3.54,3.54,0,0,0,5.3,33.62a10.11,10.11,0,0,1,10.1,10.1,3.55,3.55,0,0,0,3.54,3.54H30.09a3.53,3.53,0,0,0,3.53-3.54,10.11,10.11,0,0,1,10.1-10.1,3.54,3.54,0,0,0,3.54-3.53V18.93a3.53,3.53,0,0,0-3.54-3.53A10.11,10.11,0,0,1,33.62,5.3a3.54,3.54,0,0,0-3.53-3.54Zm5.57,37.08A14.33,14.33,0,1,1,38.84,24.51,14.35,14.35,0,0,1,24.51,38.84Zm0-28.2A13.87,13.87,0,1,0,38.38,24.51,13.88,13.88,0,0,0,24.51,10.64Z"/><circle class="cls-1" cx="24.51" cy="24.51" r="11.52"/><path class="cls-3" d="M31.31,23v3A1.34,1.34,0,0,1,30,27.36H27.36V30A1.34,1.34,0,0,1,26,31.31H23A1.34,1.34,0,0,1,21.66,30V27.36H19A1.34,1.34,0,0,1,17.71,26V23A1.34,1.34,0,0,1,19,21.66h2.62V19A1.33,1.33,0,0,1,23,17.71h3A1.33,1.33,0,0,1,27.36,19v2.62H30A1.34,1.34,0,0,1,31.31,23Z"/></g></g></svg>